<svg width="208" height="92" viewBox="0 0 208 92" fill="none" xmlns="http://www.w3.org/2000/svg">
<g filter="url(#filter0_d_1_304)">
<g clip-path="url(#clip0_1_304)">
<path d="M46 77.5C65.6061 77.5 81.5 61.6061 81.5 42C81.5 22.3939 65.6061 6.5 46 6.5C26.3939 6.5 10.5 22.3939 10.5 42C10.5 61.6061 26.3939 77.5 46 77.5Z" fill="white" stroke="#DCDDEB"/>
<path d="M45.6016 61.2031C56.4272 61.2031 65.2031 52.4272 65.2031 41.6016C65.2031 30.7759 56.4272 22 45.6016 22C34.7759 22 26 30.7759 26 41.6016C26 52.4272 34.7759 61.2031 45.6016 61.2031Z" fill="#0075FF"/>
<path d="M43.6414 49.4423C43.1396 49.4423 42.6378 49.2502 42.2556 48.868L36.3751 42.9875C35.6087 42.2211 35.6087 40.9823 36.3751 40.2158C37.1415 39.4494 38.3803 39.4494 39.1468 40.2158L43.6414 44.7105L52.0564 36.2955C52.8228 35.5291 54.0616 35.5291 54.828 36.2955C55.5944 37.0619 55.5944 38.3008 54.828 39.0672L45.0272 48.868C44.645 49.2502 44.1432 49.4423 43.6414 49.4423Z" fill="#EDF5FF"/>
</g>
</g>
<path d="M104.094 22.6797V14.625H105.594V22.6797C105.594 23.4297 105.44 24.0625 105.133 24.5781C104.826 25.0938 104.401 25.487 103.859 25.7578C103.323 26.0234 102.706 26.1562 102.008 26.1562C101.31 26.1562 100.69 26.0365 100.148 25.7969C99.6068 25.5573 99.1823 25.1927 98.875 24.7031C98.5677 24.2135 98.4141 23.5964 98.4141 22.8516H99.9219C99.9219 23.3307 100.01 23.724 100.188 24.0312C100.365 24.3385 100.609 24.5651 100.922 24.7109C101.24 24.8568 101.602 24.9297 102.008 24.9297C102.404 24.9297 102.758 24.8464 103.07 24.6797C103.388 24.5078 103.638 24.2552 103.82 23.9219C104.003 23.5833 104.094 23.1693 104.094 22.6797ZM118.506 19.9531V20.6719C118.506 21.526 118.399 22.2917 118.186 22.9688C117.972 23.6458 117.665 24.2214 117.264 24.6953C116.863 25.1693 116.381 25.5312 115.819 25.7812C115.261 26.0312 114.636 26.1562 113.944 26.1562C113.272 26.1562 112.655 26.0312 112.092 25.7812C111.535 25.5312 111.051 25.1693 110.639 24.6953C110.233 24.2214 109.918 23.6458 109.694 22.9688C109.47 22.2917 109.358 21.526 109.358 20.6719V19.9531C109.358 19.099 109.467 18.3359 109.686 17.6641C109.91 16.987 110.225 16.4115 110.631 15.9375C111.038 15.4583 111.519 15.0938 112.077 14.8438C112.639 14.5938 113.256 14.4688 113.928 14.4688C114.621 14.4688 115.246 14.5938 115.803 14.8438C116.366 15.0938 116.847 15.4583 117.248 15.9375C117.655 16.4115 117.965 16.987 118.178 17.6641C118.397 18.3359 118.506 19.099 118.506 19.9531ZM117.014 20.6719V19.9375C117.014 19.2604 116.944 18.6615 116.803 18.1406C116.668 17.6198 116.467 17.1823 116.202 16.8281C115.936 16.474 115.61 16.2057 115.225 16.0234C114.845 15.8411 114.413 15.75 113.928 15.75C113.459 15.75 113.035 15.8411 112.655 16.0234C112.28 16.2057 111.957 16.474 111.686 16.8281C111.42 17.1823 111.215 17.6198 111.069 18.1406C110.923 18.6615 110.85 19.2604 110.85 19.9375V20.6719C110.85 21.3542 110.923 21.9583 111.069 22.4844C111.215 23.0052 111.423 23.4453 111.694 23.8047C111.97 24.1589 112.295 24.4271 112.67 24.6094C113.051 24.7917 113.475 24.8828 113.944 24.8828C114.433 24.8828 114.868 24.7917 115.248 24.6094C115.629 24.4271 115.949 24.1589 116.209 23.8047C116.475 23.4453 116.676 23.0052 116.811 22.4844C116.946 21.9583 117.014 21.3542 117.014 20.6719ZM126.419 20.6797H123.536L123.52 19.4688H126.138C126.57 19.4688 126.947 19.3958 127.27 19.25C127.593 19.1042 127.843 18.8958 128.02 18.625C128.203 18.349 128.294 18.0208 128.294 17.6406C128.294 17.224 128.213 16.8854 128.052 16.625C127.895 16.3594 127.653 16.1667 127.325 16.0469C127.002 15.9219 126.591 15.8594 126.091 15.8594H123.872V26H122.364V14.625H126.091C126.674 14.625 127.195 14.6849 127.653 14.8047C128.111 14.9193 128.499 15.1016 128.817 15.3516C129.14 15.5964 129.385 15.9089 129.552 16.2891C129.718 16.6693 129.802 17.125 129.802 17.6562C129.802 18.125 129.682 18.5495 129.442 18.9297C129.203 19.3047 128.869 19.612 128.442 19.8516C128.02 20.0911 127.526 20.2448 126.958 20.3125L126.419 20.6797ZM126.348 26H122.942L123.794 24.7734H126.348C126.828 24.7734 127.234 24.6901 127.567 24.5234C127.906 24.3568 128.164 24.1224 128.341 23.8203C128.518 23.513 128.606 23.151 128.606 22.7344C128.606 22.3125 128.531 21.9479 128.38 21.6406C128.229 21.3333 127.992 21.0964 127.669 20.9297C127.346 20.763 126.929 20.6797 126.419 20.6797H124.27L124.286 19.4688H127.223L127.544 19.9062C128.091 19.9531 128.554 20.1094 128.934 20.375C129.315 20.6354 129.604 20.9688 129.802 21.375C130.005 21.7812 130.106 22.2292 130.106 22.7188C130.106 23.4271 129.95 24.026 129.638 24.5156C129.33 25 128.895 25.3698 128.333 25.625C127.77 25.875 127.109 26 126.348 26ZM139.995 23.125C139.995 22.8594 139.954 22.625 139.87 22.4219C139.792 22.2135 139.652 22.026 139.448 21.8594C139.251 21.6927 138.974 21.5339 138.62 21.3828C138.271 21.2318 137.829 21.0781 137.292 20.9219C136.73 20.7552 136.222 20.5703 135.769 20.3672C135.316 20.1589 134.928 19.9219 134.605 19.6562C134.282 19.3906 134.034 19.0859 133.862 18.7422C133.691 18.3984 133.605 18.0052 133.605 17.5625C133.605 17.1198 133.696 16.7109 133.878 16.3359C134.06 15.9609 134.321 15.6354 134.659 15.3594C135.003 15.0781 135.412 14.8594 135.886 14.7031C136.36 14.5469 136.889 14.4688 137.472 14.4688C138.326 14.4688 139.05 14.6328 139.644 14.9609C140.243 15.2839 140.698 15.7083 141.011 16.2344C141.323 16.7552 141.48 17.3125 141.48 17.9062H139.98C139.98 17.4792 139.889 17.1016 139.706 16.7734C139.524 16.4401 139.248 16.1797 138.878 15.9922C138.508 15.7995 138.04 15.7031 137.472 15.7031C136.935 15.7031 136.493 15.7839 136.144 15.9453C135.795 16.1068 135.534 16.3255 135.362 16.6016C135.196 16.8776 135.112 17.1927 135.112 17.5469C135.112 17.7865 135.162 18.0052 135.261 18.2031C135.365 18.3958 135.524 18.5755 135.737 18.7422C135.956 18.9089 136.232 19.0625 136.566 19.2031C136.904 19.3438 137.308 19.4792 137.777 19.6094C138.422 19.7917 138.98 19.9948 139.448 20.2188C139.917 20.4427 140.303 20.6953 140.605 20.9766C140.912 21.2526 141.139 21.5677 141.284 21.9219C141.435 22.2708 141.511 22.6667 141.511 23.1094C141.511 23.5729 141.417 23.9922 141.23 24.3672C141.042 24.7422 140.774 25.0625 140.425 25.3281C140.076 25.5938 139.657 25.7995 139.167 25.9453C138.683 26.0859 138.141 26.1562 137.542 26.1562C137.016 26.1562 136.498 26.0833 135.987 25.9375C135.482 25.7917 135.021 25.5729 134.605 25.2812C134.193 24.9896 133.862 24.6302 133.612 24.2031C133.368 23.7708 133.245 23.2708 133.245 22.7031H134.745C134.745 23.0938 134.821 23.4297 134.972 23.7109C135.123 23.987 135.329 24.2161 135.589 24.3984C135.855 24.5807 136.154 24.7161 136.487 24.8047C136.826 24.888 137.178 24.9297 137.542 24.9297C138.068 24.9297 138.514 24.8568 138.878 24.7109C139.243 24.5651 139.519 24.3568 139.706 24.0859C139.899 23.8151 139.995 23.4948 139.995 23.125ZM153.68 26H151.305L151.32 24.7734H153.68C154.492 24.7734 155.169 24.6042 155.711 24.2656C156.253 23.9219 156.659 23.4427 156.93 22.8281C157.206 22.2083 157.344 21.4844 157.344 20.6562V19.9609C157.344 19.3099 157.266 18.7318 157.109 18.2266C156.953 17.7161 156.724 17.2865 156.422 16.9375C156.12 16.5833 155.75 16.3151 155.312 16.1328C154.88 15.9505 154.383 15.8594 153.82 15.8594H151.258V14.625H153.82C154.565 14.625 155.245 14.75 155.859 15C156.474 15.2448 157.003 15.6016 157.445 16.0703C157.893 16.5339 158.237 17.0964 158.477 17.7578C158.716 18.4141 158.836 19.1536 158.836 19.9766V20.6562C158.836 21.4792 158.716 22.2214 158.477 22.8828C158.237 23.5391 157.891 24.099 157.438 24.5625C156.99 25.026 156.448 25.3828 155.812 25.6328C155.182 25.8776 154.471 26 153.68 26ZM152.109 14.625V26H150.602V14.625H152.109ZM171.459 19.9531V20.6719C171.459 21.526 171.353 22.2917 171.139 22.9688C170.926 23.6458 170.618 24.2214 170.217 24.6953C169.816 25.1693 169.334 25.5312 168.772 25.7812C168.215 26.0312 167.59 26.1562 166.897 26.1562C166.225 26.1562 165.608 26.0312 165.045 25.7812C164.488 25.5312 164.004 25.1693 163.592 24.6953C163.186 24.2214 162.871 23.6458 162.647 22.9688C162.423 22.2917 162.311 21.526 162.311 20.6719V19.9531C162.311 19.099 162.42 18.3359 162.639 17.6641C162.863 16.987 163.178 16.4115 163.584 15.9375C163.991 15.4583 164.472 15.0938 165.03 14.8438C165.592 14.5938 166.209 14.4688 166.881 14.4688C167.574 14.4688 168.199 14.5938 168.756 14.8438C169.319 15.0938 169.801 15.4583 170.202 15.9375C170.608 16.4115 170.918 16.987 171.131 17.6641C171.35 18.3359 171.459 19.099 171.459 19.9531ZM169.967 20.6719V19.9375C169.967 19.2604 169.897 18.6615 169.756 18.1406C169.621 17.6198 169.42 17.1823 169.155 16.8281C168.889 16.474 168.564 16.2057 168.178 16.0234C167.798 15.8411 167.366 15.75 166.881 15.75C166.412 15.75 165.988 15.8411 165.608 16.0234C165.233 16.2057 164.91 16.474 164.639 16.8281C164.373 17.1823 164.168 17.6198 164.022 18.1406C163.876 18.6615 163.803 19.2604 163.803 19.9375V20.6719C163.803 21.3542 163.876 21.9583 164.022 22.4844C164.168 23.0052 164.376 23.4453 164.647 23.8047C164.923 24.1589 165.248 24.4271 165.623 24.6094C166.004 24.7917 166.428 24.8828 166.897 24.8828C167.386 24.8828 167.821 24.7917 168.202 24.6094C168.582 24.4271 168.902 24.1589 169.162 23.8047C169.428 23.4453 169.629 23.0052 169.764 22.4844C169.899 21.9583 169.967 21.3542 169.967 20.6719ZM184.067 14.625V26H182.552L176.825 17.2266V26H175.317V14.625H176.825L182.575 23.4219V14.625H184.067ZM195.566 24.7734V26H189.542V24.7734H195.566ZM189.847 14.625V26H188.339V14.625H189.847ZM194.769 19.5156V20.7422H189.542V19.5156H194.769ZM195.488 14.625V15.8594H189.542V14.625H195.488Z" fill="#6E7191"/>
<path d="M108.965 42.0527V62H105.027V46.5918L100.297 48.0957V44.9922L108.541 42.0527H108.965ZM129.062 58.9238V62H115.445V59.375L121.885 52.4707C122.532 51.7507 123.042 51.1172 123.416 50.5703C123.79 50.0143 124.059 49.5176 124.223 49.0801C124.396 48.6335 124.482 48.2096 124.482 47.8086C124.482 47.207 124.382 46.6921 124.182 46.2637C123.981 45.8262 123.685 45.4889 123.293 45.252C122.91 45.015 122.436 44.8965 121.871 44.8965C121.27 44.8965 120.75 45.0423 120.312 45.334C119.884 45.6257 119.556 46.0312 119.328 46.5508C119.109 47.0703 119 47.6582 119 48.3145H115.049C115.049 47.1296 115.331 46.0449 115.896 45.0605C116.462 44.0671 117.259 43.2786 118.289 42.6953C119.319 42.1029 120.54 41.8066 121.953 41.8066C123.348 41.8066 124.523 42.0345 125.48 42.4902C126.447 42.9368 127.176 43.584 127.668 44.4316C128.169 45.2702 128.42 46.2728 128.42 47.4395C128.42 48.0957 128.315 48.7383 128.105 49.3672C127.896 49.987 127.595 50.6068 127.203 51.2266C126.82 51.8372 126.355 52.457 125.809 53.0859C125.262 53.7148 124.656 54.3665 123.99 55.041L120.531 58.9238H129.062ZM135.42 58.6777L135.406 61.3164C135.406 62.3281 135.151 63.349 134.641 64.3789C134.139 65.4089 133.501 66.252 132.727 66.9082L130.676 65.8555C130.904 65.4362 131.127 65.0169 131.346 64.5977C131.564 64.1784 131.747 63.7181 131.893 63.2168C132.038 62.7155 132.111 62.1458 132.111 61.5078V58.6777H135.42ZM142.119 52.9355L138.975 52.1836L140.109 42.0938H151.293V45.2793H143.35L142.857 49.6953C143.122 49.5404 143.523 49.3763 144.061 49.2031C144.598 49.0208 145.2 48.9297 145.865 48.9297C146.831 48.9297 147.688 49.0801 148.436 49.3809C149.183 49.6816 149.816 50.1191 150.336 50.6934C150.865 51.2676 151.266 51.9694 151.539 52.7988C151.812 53.6283 151.949 54.5671 151.949 55.6152C151.949 56.4993 151.812 57.3424 151.539 58.1445C151.266 58.9375 150.851 59.6484 150.295 60.2773C149.739 60.8971 149.042 61.3848 148.203 61.7402C147.365 62.0957 146.371 62.2734 145.223 62.2734C144.366 62.2734 143.536 62.1458 142.734 61.8906C141.941 61.6354 141.226 61.2572 140.588 60.7559C139.959 60.2546 139.453 59.6484 139.07 58.9375C138.697 58.2174 138.501 57.3971 138.482 56.4766H142.393C142.447 57.0417 142.593 57.5293 142.83 57.9395C143.076 58.3405 143.4 58.6504 143.801 58.8691C144.202 59.0879 144.671 59.1973 145.209 59.1973C145.71 59.1973 146.139 59.1016 146.494 58.9102C146.85 58.7188 147.137 58.4544 147.355 58.1172C147.574 57.7708 147.734 57.3698 147.834 56.9141C147.943 56.4492 147.998 55.9479 147.998 55.4102C147.998 54.8724 147.934 54.3848 147.807 53.9473C147.679 53.5098 147.483 53.1315 147.219 52.8125C146.954 52.4935 146.617 52.2474 146.207 52.0742C145.806 51.901 145.337 51.8145 144.799 51.8145C144.07 51.8145 143.505 51.9284 143.104 52.1562C142.712 52.3841 142.383 52.6439 142.119 52.9355ZM168.438 54.5625V57.6523H154.096L153.904 55.2598L162.203 42.0938H165.334L161.943 47.7676L157.814 54.5625H168.438ZM166.182 42.0938V62H162.244V42.0938H166.182ZM183.969 50.2969V53.7422C183.969 55.237 183.809 56.5267 183.49 57.6113C183.171 58.6868 182.711 59.571 182.109 60.2637C181.517 60.9473 180.811 61.4531 179.99 61.7812C179.17 62.1094 178.258 62.2734 177.256 62.2734C176.454 62.2734 175.706 62.1732 175.014 61.9727C174.321 61.763 173.697 61.4395 173.141 61.002C172.594 60.5645 172.12 60.013 171.719 59.3477C171.327 58.6732 171.026 57.8711 170.816 56.9414C170.607 56.0117 170.502 54.9453 170.502 53.7422V50.2969C170.502 48.8021 170.661 47.5215 170.98 46.4551C171.309 45.3796 171.769 44.5 172.361 43.8164C172.963 43.1328 173.674 42.6315 174.494 42.3125C175.314 41.9844 176.226 41.8203 177.229 41.8203C178.031 41.8203 178.773 41.9251 179.457 42.1348C180.15 42.3353 180.774 42.6497 181.33 43.0781C181.886 43.5065 182.36 44.0579 182.752 44.7324C183.144 45.3978 183.445 46.1953 183.654 47.125C183.864 48.0456 183.969 49.1029 183.969 50.2969ZM180.018 54.2617V49.7637C180.018 49.0436 179.977 48.4147 179.895 47.877C179.822 47.3392 179.708 46.8835 179.553 46.5098C179.398 46.127 179.206 45.8171 178.979 45.5801C178.751 45.3431 178.491 45.1699 178.199 45.0605C177.908 44.9512 177.584 44.8965 177.229 44.8965C176.782 44.8965 176.385 44.9831 176.039 45.1562C175.702 45.3294 175.415 45.6074 175.178 45.9902C174.941 46.3639 174.758 46.8652 174.631 47.4941C174.512 48.1139 174.453 48.8704 174.453 49.7637V54.2617C174.453 54.9818 174.49 55.6152 174.562 56.1621C174.645 56.709 174.763 57.1784 174.918 57.5703C175.082 57.9531 175.273 58.2676 175.492 58.5137C175.72 58.7507 175.98 58.9238 176.271 59.0332C176.572 59.1426 176.9 59.1973 177.256 59.1973C177.693 59.1973 178.081 59.1107 178.418 58.9375C178.764 58.7552 179.056 58.4727 179.293 58.0898C179.539 57.6979 179.721 57.1875 179.84 56.5586C179.958 55.9297 180.018 55.1641 180.018 54.2617ZM199.691 50.9121V54.3438H186.047V50.9121H199.691ZM194.742 45.5117V60.0039H191.01V45.5117H194.742Z" fill="#211F54"/>
<defs>
<filter id="filter0_d_1_304" x="0" y="0" width="92" height="92" filterUnits="userSpaceOnUse" color-interpolation-filters="sRGB">
<feFlood flood-opacity="0" result="BackgroundImageFix"/>
<feColorMatrix in="SourceAlpha" type="matrix" values="0 0 0 0 0 0 0 0 0 0 0 0 0 0 0 0 0 0 127 0" result="hardAlpha"/>
<feOffset dy="4"/>
<feGaussianBlur stdDeviation="5"/>
<feColorMatrix type="matrix" values="0 0 0 0 0.0784314 0 0 0 0 0.0784314 0 0 0 0 0.168627 0 0 0 0.04 0"/>
<feBlend mode="normal" in2="BackgroundImageFix" result="effect1_dropShadow_1_304"/>
<feBlend mode="normal" in="SourceGraphic" in2="effect1_dropShadow_1_304" result="shape"/>
</filter>
<clipPath id="clip0_1_304">
<path d="M10 13C10 9.13401 13.134 6 17 6H75C78.866 6 82 9.13401 82 13V71C82 74.866 78.866 78 75 78H17C13.134 78 10 74.866 10 71V13Z" fill="white"/>
</clipPath>
</defs>
</svg>
