<svg width="201" height="92" viewBox="0 0 201 92" fill="none" xmlns="http://www.w3.org/2000/svg">
<g filter="url(#filter0_d_1_312)">
<g clip-path="url(#clip0_1_312)">
<path d="M46 77.5C65.6061 77.5 81.5 61.6061 81.5 42C81.5 22.3939 65.6061 6.5 46 6.5C26.3939 6.5 10.5 22.3939 10.5 42C10.5 61.6061 26.3939 77.5 46 77.5Z" fill="white" stroke="#DCDDEB"/>
<path d="M53.206 44.5879H38.7943C34.8146 44.5879 31.5884 47.8141 31.5884 51.7938C31.5884 55.7735 34.8146 58.9997 38.7943 58.9997H53.206C57.1857 58.9997 60.4119 55.7735 60.4119 51.7938C60.4119 47.8141 57.1857 44.5879 53.206 44.5879Z" fill="#123578"/>
<path d="M45.9999 40.4706C50.5482 40.4706 54.2352 36.7835 54.2352 32.2353C54.2352 27.6871 50.5482 24 45.9999 24C41.4517 24 37.7646 27.6871 37.7646 32.2353C37.7646 36.7835 41.4517 40.4706 45.9999 40.4706Z" fill="#0075FF"/>
</g>
</g>
<path d="M106.547 24.7734V26H100.523V24.7734H106.547ZM100.828 14.625V26H99.3203V14.625H100.828ZM105.75 19.5156V20.7422H100.523V19.5156H105.75ZM106.469 14.625V15.8594H100.523V14.625H106.469ZM110.491 14.625H111.952L115.678 23.8984L119.397 14.625H120.866L116.241 26H115.1L110.491 14.625ZM110.014 14.625H111.303L111.514 21.5625V26H110.014V14.625ZM120.045 14.625H121.334V26H119.834V21.5625L120.045 14.625ZM129.778 21.5391H126.739V20.3125H129.778C130.367 20.3125 130.843 20.2188 131.208 20.0312C131.572 19.8438 131.838 19.5833 132.005 19.25C132.177 18.9167 132.263 18.5365 132.263 18.1094C132.263 17.7188 132.177 17.3516 132.005 17.0078C131.838 16.6641 131.572 16.388 131.208 16.1797C130.843 15.9661 130.367 15.8594 129.778 15.8594H127.091V26H125.583V14.625H129.778C130.638 14.625 131.364 14.7734 131.958 15.0703C132.552 15.3672 133.002 15.7786 133.309 16.3047C133.617 16.8255 133.77 17.4219 133.77 18.0938C133.77 18.8229 133.617 19.4453 133.309 19.9609C133.002 20.4766 132.552 20.8698 131.958 21.1406C131.364 21.4062 130.638 21.5391 129.778 21.5391ZM144.175 24.7734V26H138.487V24.7734H144.175ZM138.784 14.625V26H137.277V14.625H138.784ZM155.744 19.9531V20.6719C155.744 21.526 155.637 22.2917 155.423 22.9688C155.21 23.6458 154.903 24.2214 154.502 24.6953C154.101 25.1693 153.619 25.5312 153.056 25.7812C152.499 26.0312 151.874 26.1562 151.181 26.1562C150.509 26.1562 149.892 26.0312 149.33 25.7812C148.772 25.5312 148.288 25.1693 147.877 24.6953C147.47 24.2214 147.155 23.6458 146.931 22.9688C146.707 22.2917 146.595 21.526 146.595 20.6719V19.9531C146.595 19.099 146.705 18.3359 146.923 17.6641C147.147 16.987 147.463 16.4115 147.869 15.9375C148.275 15.4583 148.757 15.0938 149.314 14.8438C149.877 14.5938 150.494 14.4688 151.166 14.4688C151.858 14.4688 152.483 14.5938 153.041 14.8438C153.603 15.0938 154.085 15.4583 154.486 15.9375C154.892 16.4115 155.202 16.987 155.416 17.6641C155.634 18.3359 155.744 19.099 155.744 19.9531ZM154.252 20.6719V19.9375C154.252 19.2604 154.181 18.6615 154.041 18.1406C153.905 17.6198 153.705 17.1823 153.439 16.8281C153.173 16.474 152.848 16.2057 152.463 16.0234C152.082 15.8411 151.65 15.75 151.166 15.75C150.697 15.75 150.272 15.8411 149.892 16.0234C149.517 16.2057 149.194 16.474 148.923 16.8281C148.658 17.1823 148.452 17.6198 148.306 18.1406C148.16 18.6615 148.088 19.2604 148.088 19.9375V20.6719C148.088 21.3542 148.16 21.9583 148.306 22.4844C148.452 23.0052 148.66 23.4453 148.931 23.8047C149.207 24.1589 149.533 24.4271 149.908 24.6094C150.288 24.7917 150.713 24.8828 151.181 24.8828C151.671 24.8828 152.106 24.7917 152.486 24.6094C152.866 24.4271 153.186 24.1589 153.447 23.8047C153.713 23.4453 153.913 23.0052 154.048 22.4844C154.184 21.9583 154.252 21.3542 154.252 20.6719ZM159.781 14.625L162.734 20.3359L165.695 14.625H167.406L163.484 21.75V26H161.977V21.75L158.055 14.625H159.781ZM177.694 24.7734V26H171.67V24.7734H177.694ZM171.975 14.625V26H170.467V14.625H171.975ZM176.897 19.5156V20.7422H171.67V19.5156H176.897ZM177.616 14.625V15.8594H171.67V14.625H177.616ZM188.387 24.7734V26H182.364V24.7734H188.387ZM182.669 14.625V26H181.161V14.625H182.669ZM187.591 19.5156V20.7422H182.364V19.5156H187.591ZM188.309 14.625V15.8594H182.364V14.625H188.309ZM197.917 23.125C197.917 22.8594 197.876 22.625 197.792 22.4219C197.714 22.2135 197.573 22.026 197.37 21.8594C197.172 21.6927 196.896 21.5339 196.542 21.3828C196.193 21.2318 195.751 21.0781 195.214 20.9219C194.652 20.7552 194.144 20.5703 193.691 20.3672C193.238 20.1589 192.849 19.9219 192.527 19.6562C192.204 19.3906 191.956 19.0859 191.784 18.7422C191.613 18.3984 191.527 18.0052 191.527 17.5625C191.527 17.1198 191.618 16.7109 191.8 16.3359C191.982 15.9609 192.243 15.6354 192.581 15.3594C192.925 15.0781 193.334 14.8594 193.808 14.7031C194.282 14.5469 194.81 14.4688 195.394 14.4688C196.248 14.4688 196.972 14.6328 197.566 14.9609C198.165 15.2839 198.62 15.7083 198.933 16.2344C199.245 16.7552 199.402 17.3125 199.402 17.9062H197.902C197.902 17.4792 197.81 17.1016 197.628 16.7734C197.446 16.4401 197.17 16.1797 196.8 15.9922C196.43 15.7995 195.961 15.7031 195.394 15.7031C194.857 15.7031 194.415 15.7839 194.066 15.9453C193.717 16.1068 193.456 16.3255 193.284 16.6016C193.118 16.8776 193.034 17.1927 193.034 17.5469C193.034 17.7865 193.084 18.0052 193.183 18.2031C193.287 18.3958 193.446 18.5755 193.659 18.7422C193.878 18.9089 194.154 19.0625 194.488 19.2031C194.826 19.3438 195.23 19.4792 195.698 19.6094C196.344 19.7917 196.902 19.9948 197.37 20.2188C197.839 20.4427 198.224 20.6953 198.527 20.9766C198.834 21.2526 199.06 21.5677 199.206 21.9219C199.357 22.2708 199.433 22.6667 199.433 23.1094C199.433 23.5729 199.339 23.9922 199.152 24.3672C198.964 24.7422 198.696 25.0625 198.347 25.3281C197.998 25.5938 197.579 25.7995 197.089 25.9453C196.605 26.0859 196.063 26.1562 195.464 26.1562C194.938 26.1562 194.42 26.0833 193.909 25.9375C193.404 25.7917 192.943 25.5729 192.527 25.2812C192.115 24.9896 191.784 24.6302 191.534 24.2031C191.29 23.7708 191.167 23.2708 191.167 22.7031H192.667C192.667 23.0938 192.743 23.4297 192.894 23.7109C193.045 23.987 193.251 24.2161 193.511 24.3984C193.777 24.5807 194.076 24.7161 194.409 24.8047C194.748 24.888 195.099 24.9297 195.464 24.9297C195.99 24.9297 196.435 24.8568 196.8 24.7109C197.165 24.5651 197.441 24.3568 197.628 24.0859C197.821 23.8151 197.917 23.4948 197.917 23.125Z" fill="#6E7191"/>
<path d="M108.965 42.0527V62H105.027V46.5918L100.297 48.0957V44.9922L108.541 42.0527H108.965ZM128.844 50.2969V53.7422C128.844 55.237 128.684 56.5267 128.365 57.6113C128.046 58.6868 127.586 59.571 126.984 60.2637C126.392 60.9473 125.686 61.4531 124.865 61.7812C124.045 62.1094 123.133 62.2734 122.131 62.2734C121.329 62.2734 120.581 62.1732 119.889 61.9727C119.196 61.763 118.572 61.4395 118.016 61.002C117.469 60.5645 116.995 60.013 116.594 59.3477C116.202 58.6732 115.901 57.8711 115.691 56.9414C115.482 56.0117 115.377 54.9453 115.377 53.7422V50.2969C115.377 48.8021 115.536 47.5215 115.855 46.4551C116.184 45.3796 116.644 44.5 117.236 43.8164C117.838 43.1328 118.549 42.6315 119.369 42.3125C120.189 41.9844 121.101 41.8203 122.104 41.8203C122.906 41.8203 123.648 41.9251 124.332 42.1348C125.025 42.3353 125.649 42.6497 126.205 43.0781C126.761 43.5065 127.235 44.0579 127.627 44.7324C128.019 45.3978 128.32 46.1953 128.529 47.125C128.739 48.0456 128.844 49.1029 128.844 50.2969ZM124.893 54.2617V49.7637C124.893 49.0436 124.852 48.4147 124.77 47.877C124.697 47.3392 124.583 46.8835 124.428 46.5098C124.273 46.127 124.081 45.8171 123.854 45.5801C123.626 45.3431 123.366 45.1699 123.074 45.0605C122.783 44.9512 122.459 44.8965 122.104 44.8965C121.657 44.8965 121.26 44.9831 120.914 45.1562C120.577 45.3294 120.29 45.6074 120.053 45.9902C119.816 46.3639 119.633 46.8652 119.506 47.4941C119.387 48.1139 119.328 48.8704 119.328 49.7637V54.2617C119.328 54.9818 119.365 55.6152 119.438 56.1621C119.52 56.709 119.638 57.1784 119.793 57.5703C119.957 57.9531 120.148 58.2676 120.367 58.5137C120.595 58.7507 120.855 58.9238 121.146 59.0332C121.447 59.1426 121.775 59.1973 122.131 59.1973C122.568 59.1973 122.956 59.1107 123.293 58.9375C123.639 58.7552 123.931 58.4727 124.168 58.0898C124.414 57.6979 124.596 57.1875 124.715 56.5586C124.833 55.9297 124.893 55.1641 124.893 54.2617ZM144.922 50.2969V53.7422C144.922 55.237 144.762 56.5267 144.443 57.6113C144.124 58.6868 143.664 59.571 143.062 60.2637C142.47 60.9473 141.764 61.4531 140.943 61.7812C140.123 62.1094 139.212 62.2734 138.209 62.2734C137.407 62.2734 136.66 62.1732 135.967 61.9727C135.274 61.763 134.65 61.4395 134.094 61.002C133.547 60.5645 133.073 60.013 132.672 59.3477C132.28 58.6732 131.979 57.8711 131.77 56.9414C131.56 56.0117 131.455 54.9453 131.455 53.7422V50.2969C131.455 48.8021 131.615 47.5215 131.934 46.4551C132.262 45.3796 132.722 44.5 133.314 43.8164C133.916 43.1328 134.627 42.6315 135.447 42.3125C136.268 41.9844 137.179 41.8203 138.182 41.8203C138.984 41.8203 139.727 41.9251 140.41 42.1348C141.103 42.3353 141.727 42.6497 142.283 43.0781C142.839 43.5065 143.313 44.0579 143.705 44.7324C144.097 45.3978 144.398 46.1953 144.607 47.125C144.817 48.0456 144.922 49.1029 144.922 50.2969ZM140.971 54.2617V49.7637C140.971 49.0436 140.93 48.4147 140.848 47.877C140.775 47.3392 140.661 46.8835 140.506 46.5098C140.351 46.127 140.16 45.8171 139.932 45.5801C139.704 45.3431 139.444 45.1699 139.152 45.0605C138.861 44.9512 138.537 44.8965 138.182 44.8965C137.735 44.8965 137.339 44.9831 136.992 45.1562C136.655 45.3294 136.368 45.6074 136.131 45.9902C135.894 46.3639 135.712 46.8652 135.584 47.4941C135.465 48.1139 135.406 48.8704 135.406 49.7637V54.2617C135.406 54.9818 135.443 55.6152 135.516 56.1621C135.598 56.709 135.716 57.1784 135.871 57.5703C136.035 57.9531 136.227 58.2676 136.445 58.5137C136.673 58.7507 136.933 58.9238 137.225 59.0332C137.525 59.1426 137.854 59.1973 138.209 59.1973C138.646 59.1973 139.034 59.1107 139.371 58.9375C139.717 58.7552 140.009 58.4727 140.246 58.0898C140.492 57.6979 140.674 57.1875 140.793 56.5586C140.911 55.9297 140.971 55.1641 140.971 54.2617ZM160.645 50.9121V54.3438H147V50.9121H160.645ZM155.695 45.5117V60.0039H151.963V45.5117H155.695Z" fill="#211F54"/>
<defs>
<filter id="filter0_d_1_312" x="0" y="0" width="92" height="92" filterUnits="userSpaceOnUse" color-interpolation-filters="sRGB">
<feFlood flood-opacity="0" result="BackgroundImageFix"/>
<feColorMatrix in="SourceAlpha" type="matrix" values="0 0 0 0 0 0 0 0 0 0 0 0 0 0 0 0 0 0 127 0" result="hardAlpha"/>
<feOffset dy="4"/>
<feGaussianBlur stdDeviation="5"/>
<feColorMatrix type="matrix" values="0 0 0 0 0.0784314 0 0 0 0 0.0784314 0 0 0 0 0.168627 0 0 0 0.04 0"/>
<feBlend mode="normal" in2="BackgroundImageFix" result="effect1_dropShadow_1_312"/>
<feBlend mode="normal" in="SourceGraphic" in2="effect1_dropShadow_1_312" result="shape"/>
</filter>
<clipPath id="clip0_1_312">
<path d="M10 13C10 9.13401 13.134 6 17 6H75C78.866 6 82 9.13401 82 13V71C82 74.866 78.866 78 75 78H17C13.134 78 10 74.866 10 71V13Z" fill="white"/>
</clipPath>
</defs>
</svg>
