<svg width="189" height="92" viewBox="0 0 189 92" fill="none" xmlns="http://www.w3.org/2000/svg">
<g filter="url(#filter0_d_1_296)">
<g clip-path="url(#clip0_1_296)">
<path d="M46 77.5C65.6061 77.5 81.5 61.6061 81.5 42C81.5 22.3939 65.6061 6.5 46 6.5C26.3939 6.5 10.5 22.3939 10.5 42C10.5 61.6061 26.3939 77.5 46 77.5Z" fill="white" stroke="#DCDDEB"/>
<path d="M45.3184 50.014C43.0479 47.7435 43.0479 44.0638 45.3184 41.7933C46.4528 40.6607 47.9412 40.0917 49.4279 40.0917C50.9146 40.0917 52.403 40.6589 53.5374 41.7933C53.784 42.0399 53.9901 42.3076 54.1839 42.5842C54.3776 42.3094 54.5837 42.0399 54.8303 41.7933C55.9647 40.6607 57.4531 40.0917 58.9398 40.0917C60.4265 40.0917 61.9149 40.6589 63.0493 41.7933C63.1251 41.869 63.1779 41.9589 63.2501 42.0381C65.6528 37.9533 65.1384 32.6266 61.6313 29.1196C59.551 27.041 56.8225 26 54.0958 26C51.369 26 48.6405 27.041 46.5602 29.1213C46.1093 29.5722 45.7306 30.0655 45.3765 30.571C45.0225 30.0655 44.6438 29.5722 44.1928 29.1213C42.1126 27.041 39.384 26 36.6573 26C33.9306 26 31.202 27.041 29.1218 29.1213C24.9594 33.2837 24.9594 40.0301 29.1218 44.1924C30.9308 46.0014 41.8765 55.1064 42.6357 55.8656C43.3931 56.623 44.3848 57 45.3765 57C46.3682 57 47.36 56.6213 48.1174 55.8656C48.2953 55.6877 49.0439 55.043 50.0902 54.1517C48.2055 52.5523 45.8997 50.5953 45.3184 50.014Z" fill="#0075FF"/>
<path d="M63.0495 41.7946C61.9151 40.6603 60.4267 40.0913 58.94 40.0913C57.4533 40.0913 55.9649 40.6585 54.8305 41.7929C54.5839 42.0395 54.3778 42.3072 54.1841 42.5838C53.9903 42.3072 53.7842 42.0395 53.5376 41.7929C52.4032 40.6603 50.9148 40.0913 49.4281 40.0913C47.9414 40.0913 46.453 40.6585 45.3186 41.7929C43.0481 44.0634 43.0481 47.7431 45.3186 50.0136C46.305 51.0001 52.2746 55.9656 52.6886 56.3796C53.1025 56.7935 53.6433 56.9978 54.1841 56.9978C54.7248 56.9978 55.2656 56.7917 55.6796 56.3796C56.0953 55.9656 62.0649 50.9983 63.0495 50.0136C65.32 47.7431 65.32 44.0652 63.0495 41.7946Z" fill="#123578"/>
</g>
</g>
<path d="M106.188 22.3828H107.688C107.609 23.1016 107.404 23.7448 107.07 24.3125C106.737 24.8802 106.266 25.3307 105.656 25.6641C105.047 25.9922 104.286 26.1562 103.375 26.1562C102.708 26.1562 102.102 26.0312 101.555 25.7812C101.013 25.5312 100.547 25.1771 100.156 24.7188C99.7656 24.2552 99.4635 23.7005 99.25 23.0547C99.0417 22.4036 98.9375 21.6797 98.9375 20.8828V19.75C98.9375 18.9531 99.0417 18.2318 99.25 17.5859C99.4635 16.9349 99.7682 16.3776 100.164 15.9141C100.565 15.4505 101.047 15.0938 101.609 14.8438C102.172 14.5938 102.805 14.4688 103.508 14.4688C104.367 14.4688 105.094 14.6302 105.688 14.9531C106.281 15.276 106.742 15.724 107.07 16.2969C107.404 16.8646 107.609 17.5234 107.688 18.2734H106.188C106.115 17.7422 105.979 17.2865 105.781 16.9062C105.583 16.5208 105.302 16.224 104.938 16.0156C104.573 15.8073 104.096 15.7031 103.508 15.7031C103.003 15.7031 102.557 15.7995 102.172 15.9922C101.792 16.1849 101.471 16.4583 101.211 16.8125C100.956 17.1667 100.763 17.5911 100.633 18.0859C100.503 18.5807 100.438 19.1302 100.438 19.7344V20.8828C100.438 21.4401 100.495 21.9635 100.609 22.4531C100.729 22.9427 100.909 23.3724 101.148 23.7422C101.388 24.112 101.693 24.4036 102.062 24.6172C102.432 24.8255 102.87 24.9297 103.375 24.9297C104.016 24.9297 104.526 24.8281 104.906 24.625C105.286 24.4219 105.573 24.1302 105.766 23.75C105.964 23.3698 106.104 22.9141 106.188 22.3828ZM118.241 24.7734V26H112.553V24.7734H118.241ZM112.85 14.625V26H111.342V14.625H112.85ZM123.184 14.625V26H121.677V14.625H123.184ZM134.753 24.7734V26H128.73V24.7734H134.753ZM129.034 14.625V26H127.527V14.625H129.034ZM133.956 19.5156V20.7422H128.73V19.5156H133.956ZM134.675 14.625V15.8594H128.73V14.625H134.675ZM146.97 14.625V26H145.455L139.728 17.2266V26H138.22V14.625H139.728L145.478 23.4219V14.625H146.97ZM155.211 14.625V26H153.727V14.625H155.211ZM158.867 14.625V15.8594H150.078V14.625H158.867ZM168.092 23.125C168.092 22.8594 168.051 22.625 167.967 22.4219C167.889 22.2135 167.748 22.026 167.545 21.8594C167.347 21.6927 167.071 21.5339 166.717 21.3828C166.368 21.2318 165.926 21.0781 165.389 20.9219C164.827 20.7552 164.319 20.5703 163.866 20.3672C163.412 20.1589 163.024 19.9219 162.702 19.6562C162.379 19.3906 162.131 19.0859 161.959 18.7422C161.787 18.3984 161.702 18.0052 161.702 17.5625C161.702 17.1198 161.793 16.7109 161.975 16.3359C162.157 15.9609 162.418 15.6354 162.756 15.3594C163.1 15.0781 163.509 14.8594 163.983 14.7031C164.457 14.5469 164.985 14.4688 165.569 14.4688C166.423 14.4688 167.147 14.6328 167.741 14.9609C168.34 15.2839 168.795 15.7083 169.108 16.2344C169.42 16.7552 169.577 17.3125 169.577 17.9062H168.077C168.077 17.4792 167.985 17.1016 167.803 16.7734C167.621 16.4401 167.345 16.1797 166.975 15.9922C166.605 15.7995 166.136 15.7031 165.569 15.7031C165.032 15.7031 164.59 15.7839 164.241 15.9453C163.892 16.1068 163.631 16.3255 163.459 16.6016C163.293 16.8776 163.209 17.1927 163.209 17.5469C163.209 17.7865 163.259 18.0052 163.358 18.2031C163.462 18.3958 163.621 18.5755 163.834 18.7422C164.053 18.9089 164.329 19.0625 164.662 19.2031C165.001 19.3438 165.405 19.4792 165.873 19.6094C166.519 19.7917 167.077 19.9948 167.545 20.2188C168.014 20.4427 168.399 20.6953 168.702 20.9766C169.009 21.2526 169.235 21.5677 169.381 21.9219C169.532 22.2708 169.608 22.6667 169.608 23.1094C169.608 23.5729 169.514 23.9922 169.327 24.3672C169.139 24.7422 168.871 25.0625 168.522 25.3281C168.173 25.5938 167.754 25.7995 167.264 25.9453C166.78 26.0859 166.238 26.1562 165.639 26.1562C165.113 26.1562 164.595 26.0833 164.084 25.9375C163.579 25.7917 163.118 25.5729 162.702 25.2812C162.29 24.9896 161.959 24.6302 161.709 24.2031C161.465 23.7708 161.342 23.2708 161.342 22.7031H162.842C162.842 23.0938 162.918 23.4297 163.069 23.7109C163.22 23.987 163.426 24.2161 163.686 24.3984C163.952 24.5807 164.251 24.7161 164.584 24.8047C164.923 24.888 165.274 24.9297 165.639 24.9297C166.165 24.9297 166.61 24.8568 166.975 24.7109C167.34 24.5651 167.616 24.3568 167.803 24.0859C167.996 23.8151 168.092 23.4948 168.092 23.125Z" fill="#6E7191"/>
<path d="M103.4 50.3379H105.506C106.18 50.3379 106.736 50.224 107.174 49.9961C107.611 49.7591 107.935 49.431 108.145 49.0117C108.363 48.5833 108.473 48.0866 108.473 47.5215C108.473 47.0111 108.372 46.5599 108.172 46.168C107.98 45.7669 107.684 45.457 107.283 45.2383C106.882 45.0104 106.376 44.8965 105.766 44.8965C105.283 44.8965 104.836 44.9922 104.426 45.1836C104.016 45.375 103.688 45.6439 103.441 45.9902C103.195 46.3366 103.072 46.7559 103.072 47.248H99.1211C99.1211 46.1543 99.4128 45.2018 99.9961 44.3906C100.589 43.5794 101.382 42.946 102.375 42.4902C103.368 42.0345 104.462 41.8066 105.656 41.8066C107.005 41.8066 108.186 42.0254 109.197 42.4629C110.209 42.8913 110.997 43.5247 111.562 44.3633C112.128 45.2018 112.41 46.2409 112.41 47.4805C112.41 48.1094 112.264 48.7201 111.973 49.3125C111.681 49.8958 111.262 50.4245 110.715 50.8984C110.177 51.3633 109.521 51.737 108.746 52.0195C107.971 52.293 107.101 52.4297 106.135 52.4297H103.4V50.3379ZM103.4 53.332V51.2949H106.135C107.219 51.2949 108.172 51.418 108.992 51.6641C109.812 51.9102 110.501 52.2656 111.057 52.7305C111.613 53.1862 112.032 53.7285 112.314 54.3574C112.597 54.9772 112.738 55.6654 112.738 56.4219C112.738 57.3516 112.561 58.181 112.205 58.9102C111.85 59.6302 111.348 60.2409 110.701 60.7422C110.063 61.2435 109.316 61.6263 108.459 61.8906C107.602 62.1458 106.668 62.2734 105.656 62.2734C104.818 62.2734 103.993 62.1595 103.182 61.9316C102.38 61.6947 101.65 61.3438 100.994 60.8789C100.347 60.4049 99.8275 59.8125 99.4355 59.1016C99.0527 58.3815 98.8613 57.5293 98.8613 56.5449H102.812C102.812 57.0553 102.94 57.5111 103.195 57.9121C103.451 58.3132 103.801 58.6276 104.248 58.8555C104.704 59.0833 105.21 59.1973 105.766 59.1973C106.395 59.1973 106.932 59.0833 107.379 58.8555C107.835 58.6185 108.181 58.2904 108.418 57.8711C108.664 57.4427 108.787 56.946 108.787 56.3809C108.787 55.6517 108.655 55.0684 108.391 54.6309C108.126 54.1842 107.748 53.8561 107.256 53.6465C106.764 53.4368 106.18 53.332 105.506 53.332H103.4ZM119.342 58.6777L119.328 61.3164C119.328 62.3281 119.073 63.349 118.562 64.3789C118.061 65.4089 117.423 66.252 116.648 66.9082L114.598 65.8555C114.826 65.4362 115.049 65.0169 115.268 64.5977C115.486 64.1784 115.669 63.7181 115.814 63.2168C115.96 62.7155 116.033 62.1458 116.033 61.5078V58.6777H119.342ZM136.281 54.5625V57.6523H121.939L121.748 55.2598L130.047 42.0938H133.178L129.787 47.7676L125.658 54.5625H136.281ZM134.025 42.0938V62H130.088V42.0938H134.025ZM151.826 56.5449C151.826 57.7936 151.535 58.8464 150.951 59.7031C150.368 60.5508 149.566 61.1934 148.545 61.6309C147.533 62.0592 146.385 62.2734 145.1 62.2734C143.814 62.2734 142.661 62.0592 141.641 61.6309C140.62 61.1934 139.813 60.5508 139.221 59.7031C138.628 58.8464 138.332 57.7936 138.332 56.5449C138.332 55.7064 138.501 54.9499 138.838 54.2754C139.175 53.5918 139.645 53.0085 140.246 52.5254C140.857 52.0332 141.572 51.6595 142.393 51.4043C143.213 51.14 144.106 51.0078 145.072 51.0078C146.367 51.0078 147.524 51.2357 148.545 51.6914C149.566 52.1471 150.368 52.7897 150.951 53.6191C151.535 54.4486 151.826 55.4238 151.826 56.5449ZM147.861 56.2852C147.861 55.6745 147.743 55.1504 147.506 54.7129C147.278 54.2663 146.954 53.9245 146.535 53.6875C146.116 53.4505 145.628 53.332 145.072 53.332C144.516 53.332 144.029 53.4505 143.609 53.6875C143.19 53.9245 142.862 54.2663 142.625 54.7129C142.397 55.1504 142.283 55.6745 142.283 56.2852C142.283 56.8867 142.397 57.4062 142.625 57.8438C142.862 58.2812 143.19 58.6185 143.609 58.8555C144.038 59.0833 144.535 59.1973 145.1 59.1973C145.665 59.1973 146.152 59.0833 146.562 58.8555C146.982 58.6185 147.301 58.2812 147.52 57.8438C147.747 57.4062 147.861 56.8867 147.861 56.2852ZM151.402 47.3711C151.402 48.3828 151.133 49.2806 150.596 50.0645C150.058 50.8392 149.311 51.4453 148.354 51.8828C147.406 52.3203 146.321 52.5391 145.1 52.5391C143.869 52.5391 142.775 52.3203 141.818 51.8828C140.861 51.4453 140.114 50.8392 139.576 50.0645C139.038 49.2806 138.77 48.3828 138.77 47.3711C138.77 46.168 139.038 45.1562 139.576 44.3359C140.123 43.5065 140.87 42.8776 141.818 42.4492C142.775 42.0208 143.86 41.8066 145.072 41.8066C146.303 41.8066 147.392 42.0208 148.34 42.4492C149.297 42.8776 150.044 43.5065 150.582 44.3359C151.129 45.1562 151.402 46.168 151.402 47.3711ZM147.465 47.5488C147.465 47.0111 147.369 46.5462 147.178 46.1543C146.986 45.7533 146.713 45.4434 146.357 45.2246C146.011 45.0059 145.583 44.8965 145.072 44.8965C144.58 44.8965 144.156 45.0013 143.801 45.2109C143.454 45.4206 143.186 45.7259 142.994 46.127C142.812 46.5189 142.721 46.9928 142.721 47.5488C142.721 48.0866 142.812 48.5605 142.994 48.9707C143.186 49.3717 143.459 49.6862 143.814 49.9141C144.17 50.1419 144.598 50.2559 145.1 50.2559C145.601 50.2559 146.025 50.1419 146.371 49.9141C146.727 49.6862 146.995 49.3717 147.178 48.9707C147.369 48.5605 147.465 48.0866 147.465 47.5488ZM167.891 50.2969V53.7422C167.891 55.237 167.731 56.5267 167.412 57.6113C167.093 58.6868 166.633 59.571 166.031 60.2637C165.439 60.9473 164.732 61.4531 163.912 61.7812C163.092 62.1094 162.18 62.2734 161.178 62.2734C160.376 62.2734 159.628 62.1732 158.936 61.9727C158.243 61.763 157.618 61.4395 157.062 61.002C156.516 60.5645 156.042 60.013 155.641 59.3477C155.249 58.6732 154.948 57.8711 154.738 56.9414C154.529 56.0117 154.424 54.9453 154.424 53.7422V50.2969C154.424 48.8021 154.583 47.5215 154.902 46.4551C155.23 45.3796 155.691 44.5 156.283 43.8164C156.885 43.1328 157.596 42.6315 158.416 42.3125C159.236 41.9844 160.148 41.8203 161.15 41.8203C161.952 41.8203 162.695 41.9251 163.379 42.1348C164.072 42.3353 164.696 42.6497 165.252 43.0781C165.808 43.5065 166.282 44.0579 166.674 44.7324C167.066 45.3978 167.367 46.1953 167.576 47.125C167.786 48.0456 167.891 49.1029 167.891 50.2969ZM163.939 54.2617V49.7637C163.939 49.0436 163.898 48.4147 163.816 47.877C163.743 47.3392 163.63 46.8835 163.475 46.5098C163.32 46.127 163.128 45.8171 162.9 45.5801C162.673 45.3431 162.413 45.1699 162.121 45.0605C161.829 44.9512 161.506 44.8965 161.15 44.8965C160.704 44.8965 160.307 44.9831 159.961 45.1562C159.624 45.3294 159.337 45.6074 159.1 45.9902C158.863 46.3639 158.68 46.8652 158.553 47.4941C158.434 48.1139 158.375 48.8704 158.375 49.7637V54.2617C158.375 54.9818 158.411 55.6152 158.484 56.1621C158.566 56.709 158.685 57.1784 158.84 57.5703C159.004 57.9531 159.195 58.2676 159.414 58.5137C159.642 58.7507 159.902 58.9238 160.193 59.0332C160.494 59.1426 160.822 59.1973 161.178 59.1973C161.615 59.1973 162.003 59.1107 162.34 58.9375C162.686 58.7552 162.978 58.4727 163.215 58.0898C163.461 57.6979 163.643 57.1875 163.762 56.5586C163.88 55.9297 163.939 55.1641 163.939 54.2617ZM183.613 50.9121V54.3438H169.969V50.9121H183.613ZM178.664 45.5117V60.0039H174.932V45.5117H178.664Z" fill="#211F54"/>
<defs>
<filter id="filter0_d_1_296" x="0" y="0" width="92" height="92" filterUnits="userSpaceOnUse" color-interpolation-filters="sRGB">
<feFlood flood-opacity="0" result="BackgroundImageFix"/>
<feColorMatrix in="SourceAlpha" type="matrix" values="0 0 0 0 0 0 0 0 0 0 0 0 0 0 0 0 0 0 127 0" result="hardAlpha"/>
<feOffset dy="4"/>
<feGaussianBlur stdDeviation="5"/>
<feColorMatrix type="matrix" values="0 0 0 0 0.0784314 0 0 0 0 0.0784314 0 0 0 0 0.168627 0 0 0 0.04 0"/>
<feBlend mode="normal" in2="BackgroundImageFix" result="effect1_dropShadow_1_296"/>
<feBlend mode="normal" in="SourceGraphic" in2="effect1_dropShadow_1_296" result="shape"/>
</filter>
<clipPath id="clip0_1_296">
<path d="M10 13C10 9.13401 13.134 6 17 6H75C78.866 6 82 9.13401 82 13V71C82 74.866 78.866 78 75 78H17C13.134 78 10 74.866 10 71V13Z" fill="white"/>
</clipPath>
</defs>
</svg>
