<svg width="22" height="20" viewBox="0 0 22 20" fill="none" xmlns="http://www.w3.org/2000/svg">
<path d="M19.871 0H2.12903C0.958065 0 0 0.9 0 2C0 3.1 0.958065 4 2.12903 4H19.871C21.0419 4 22 3.1 22 2C22 0.9 21.0419 0 19.871 0Z" fill="#323F73"/>
<path d="M19.871 8H2.12903C0.958065 8 0 8.9 0 10C0 11.1 0.958065 12 2.12903 12H19.871C21.0419 12 22 11.1 22 10C22 8.9 21.0419 8 19.871 8Z" fill="#323F73"/>
<path d="M19.871 16H2.12903C0.958065 16 0 16.9 0 18C0 19.1 0.958065 20 2.12903 20H19.871C21.0419 20 22 19.1 22 18C22 16.9 21.0419 16 19.871 16Z" fill="#323F73"/>
</svg>
